<svg width="64" height="39" viewBox="0 0 64 39" fill="none" xmlns="http://www.w3.org/2000/svg">
<path d="M13.1066 13.8094C11.8839 13.0942 11.4181 12.1596 11.3381 11.7817C8.36 14.4765 10.8177 17.6502 12.4189 18.9003C12.3664 18.22 12.8555 15.2229 13.1066 13.8094Z" fill="#5C95FF"/>
<path d="M50.4382 24.0689C51.6693 24.7971 52.0975 25.4206 52.425 26.3908C55.4457 23.6844 52.7912 20.0519 51.1806 18.7817C51.2301 19.4689 50.6988 22.6427 50.4382 24.0689Z" fill="#5C95FF"/>
<path d="M31.7293 38.5308C42.3948 38.5308 51.0409 29.9066 51.0409 19.2682C51.0409 8.62975 42.3948 0.00561523 31.7293 0.00561523C21.0638 0.00561523 12.4177 8.62975 12.4177 19.2682C12.4177 29.9066 21.0638 38.5308 31.7293 38.5308Z" fill="url(#paint0_radial_164_1238)"/>
<mask id="mask0_164_1238" style="mask-type:luminance" maskUnits="userSpaceOnUse" x="12" y="0" width="40" height="39">
<path d="M50.8899 21.6451C52.1989 11.0791 44.6798 1.45444 34.0957 0.147743C23.5115 -1.15895 13.8703 6.34717 12.5613 16.9131C11.2524 27.479 18.7714 37.1037 29.3556 38.4105C39.9397 39.7171 49.5809 32.211 50.8899 21.6451Z" fill="white"/>
</mask>
<g mask="url(#mask0_164_1238)">
<path d="M33.1323 20.2993C33.5237 20.1705 34.1045 20.3465 34.5476 20.1919C34.7325 20.1276 33.442 19.4576 33.1323 19.6681C32.9946 19.7625 33.3388 19.9944 33.3388 20.0932C33.3388 20.2349 32.7925 20.0545 32.7365 20.2048C32.6763 20.3594 33.1237 20.3036 33.1366 20.2993C32.9301 20.368 33.3302 20.2349 33.1366 20.2993H33.1323Z" fill="white"/>
<path d="M43.8648 26.8869C43.4132 26.9469 43.2712 26.4102 42.854 26.3501C42.6518 26.32 41.6452 26.2513 41.5678 26.4703C41.7183 26.0366 41.2537 25.809 40.8063 25.8175C40.7547 25.8175 40.2988 26.3629 40.2342 26.2384C40.1525 26.0795 40.8537 25.8047 40.3245 25.6973C40.1439 25.663 39.731 25.912 39.7697 25.9335C39.546 25.8175 39.9761 25.6286 40.0148 25.5771C40.2729 25.225 40.131 25.2636 39.9331 25.0403C39.8299 24.9244 39.8987 24.5465 39.7438 24.4906C39.4814 24.3876 39.3094 24.1514 39.0168 24.044C38.862 23.9882 38.4103 23.9367 38.2426 23.9452C38.0533 23.9538 37.9716 23.7692 37.8253 23.7735C37.7909 23.7735 36.9736 22.8889 36.8101 23.2195C37.0596 22.7171 36.3412 22.9833 36.4014 22.7557C36.4573 22.7257 36.5089 22.6913 36.5563 22.6484C36.4057 22.5324 36.096 22.6441 35.9627 22.6913C35.6185 22.8201 35.3475 22.5582 35.1066 22.657C34.9647 22.7128 34.156 22.2147 34.1516 22.2361C34.1216 22.4594 34.0011 22.4036 33.8032 22.5195C33.6225 22.6269 33.9581 23.2281 33.6441 23.1078C33.2354 22.949 33.7129 22.3692 33.7903 22.2233C33.9107 21.9913 33.2612 22.3134 33.2267 22.3435C33.0074 22.5238 32.7493 22.4251 32.5772 22.5367C32.3535 22.6828 32.1858 23.1637 31.9879 23.3956C31.9793 23.4042 31.3599 22.8803 31.0932 22.979C30.4909 23.2152 30.3145 23.1723 29.9102 22.6012C29.8456 22.511 29.8886 21.7251 29.9747 21.6306C30.7275 20.8104 28.3702 21.0767 28.3659 21.0681C28.3315 21.0423 28.5637 20.2608 28.5852 20.2822C28.7358 20.1319 28.7186 19.8571 28.7143 19.6639C28.7057 19.1872 29.0971 19.4663 28.6713 19.2001C28.439 19.054 27.7765 19.2301 27.8024 19.5694C27.8153 19.7669 27.5013 20.0031 27.5184 20.1233C27.4883 19.9387 26.1548 20.5613 26.0773 19.7626C26.0429 19.4191 25.6644 19.2087 25.6472 18.7663C25.6343 18.5087 25.716 17.7529 25.7719 17.7872C25.7849 17.594 25.7505 17.4566 25.7633 17.2719C25.7719 17.083 25.9784 17.0529 25.9784 16.9112C25.9784 16.8468 26.6538 16.5548 26.7054 16.4689C26.8001 16.2928 28.1895 16.5977 28.2368 16.6621C28.0217 16.34 28.0174 16.2756 28.4691 16.2584C28.5809 16.2584 29.0757 16.1554 29.2563 16.2971C29.6305 16.5891 29.7123 16.267 30.1553 16.7094C30.1984 16.7523 30.3576 17.521 30.3619 17.6155C30.3963 18.032 30.9254 18.1823 30.9942 17.6327C31.0587 17.1087 30.5468 16.6363 30.564 16.1125C30.5727 15.8634 31.1792 15.069 31.4545 15.069C31.6696 15.069 31.5793 14.9831 31.7427 14.8671C32.1298 14.588 31.8158 14.6867 32.0051 14.4677C32.0653 14.399 32.3793 14.5966 32.4224 14.3346C32.3622 14.2874 32.2976 14.2616 32.2202 14.253C32.1728 14.1929 31.8244 13.0206 32.203 13.0206C32.0653 13.0206 32.3708 13.7721 32.2933 13.8236C32.6289 13.6132 32.3234 13.2782 32.4224 13.1108C32.332 13.2653 33.1881 12.9433 32.8568 12.7372C32.8009 12.7028 33.4375 12.604 33.4763 12.531C33.5193 12.4451 33.0074 12.5611 33.0074 12.5181C33.0074 12.4193 33.7258 12.3378 33.6526 12.2433C33.9366 12.5997 33.8462 11.8182 33.9022 11.7108C34.0312 11.4703 35.782 10.7188 35.7734 10.7188C35.8508 10.7918 35.696 10.8777 35.726 10.9035C35.782 10.9507 36.0229 11.0108 36.0745 10.9851C35.8164 11.1182 35.653 10.9765 35.4077 11.2127C35.0292 11.582 35.6744 11.6164 35.9154 11.3028C35.9325 11.2814 37.3263 10.7747 37.2101 10.6974C37.0424 10.5728 37.0252 10.7188 37.0682 10.4698C37.0553 10.5513 36.5606 10.8863 36.4143 10.8777C36.1648 10.8606 36.0229 10.7231 35.8207 10.6029C35.5411 10.4354 35.7777 10.2679 35.726 10.1005C35.6873 9.97162 35.5196 10.1648 35.4593 10.1348C35.4938 10.1477 36.2681 9.39189 35.3088 9.55937C35.0421 9.60662 34.7539 9.68821 34.513 9.81704C34.328 9.91577 34.0828 10.3495 33.8634 10.3452C33.9193 10.3452 34.5087 9.61522 34.6119 9.54647C34.9131 9.33175 35.2399 9.16427 35.6443 9.14713C36.0917 9.12993 36.5477 9.13422 36.9907 9.16427C37.1112 9.16427 38.3974 8.5545 38.3544 8.48151C38.2899 8.44711 38.2253 8.41707 38.1565 8.39133C38.1737 8.40423 38.462 8.21094 38.3243 8.11221C38.0146 7.88459 38.1608 8.04777 37.8769 8.00912C37.6962 7.98338 38.1264 7.67847 37.6403 7.76866C37.6188 7.76866 37.094 8.05207 37.038 8.01772C36.8402 7.89319 37.7952 7.63552 37.7952 7.63122C37.7651 7.67847 36.3154 6.93127 36.2681 6.79383C36.2681 6.79813 36.7972 6.62635 36.3584 6.3172C36.2251 6.21841 35.6142 5.29943 35.5927 5.31657C35.4465 5.41966 35.2959 5.84051 35.2486 6.00369C35.3045 5.80616 34.87 6.14112 34.9388 6.11532C34.7668 6.18837 34.6033 6.07667 34.513 5.95214C34.4743 5.89635 34.2506 5.75892 34.1646 5.69447C34.0355 5.59144 34.2162 5.25648 34.2119 5.15769C34.2119 5.09331 33.5752 5.14055 33.5494 4.98161C33.5193 4.78839 32.973 4.53503 32.788 4.59947C32.4309 4.72831 32.0309 4.37615 31.7212 4.61661C31.7857 4.56507 31.7642 5.20924 31.7212 5.1749C32.0653 5.47121 31.7212 5.63869 31.5793 5.9178C31.4631 6.12822 32.5859 6.54046 32.0008 7.0429C31.5061 7.47235 31.0802 7.27906 31.4029 7.94898C31.476 8.10361 31.3899 8.68764 31.4286 8.70478C31.2136 8.61889 31.1749 8.85081 31.106 8.82077C30.8952 8.73488 30.9641 8.65329 30.8049 8.5416C30.7103 8.47291 30.392 8.23675 30.3963 8.11221C30.3963 8.00482 30.4694 7.44654 30.4006 7.37355C30.121 7.0687 28.9982 7.45944 28.8133 6.90122C28.6842 6.52332 27.6991 6.665 27.4367 6.70794C27.527 6.6908 27.4109 6.00799 27.1786 6.04663C26.5893 6.14542 26.9162 5.45831 27.0625 5.22214C27.1915 5.00742 27.3722 4.90433 27.5356 4.73255C27.5443 4.72401 27.6518 4.58657 27.6475 4.58227C27.5572 4.50498 28.1551 4.52642 28.1164 4.3332C28.1035 4.28596 27.2776 4.10988 27.299 4.07984C27.441 3.84366 28.1035 4.42339 28.3315 3.97251C28.2282 4.17433 29.5015 3.74059 29.1875 3.5817C29.0713 3.52159 28.3401 3.61176 28.4003 3.3627C28.3659 3.48723 29.9446 3.55164 29.3251 3.15227C29.2994 3.1351 29.936 3.13939 30.0134 3.13939C30.1123 3.13939 29.8069 2.96332 29.8112 2.94185C29.7983 2.99768 30.3145 3.10503 30.4952 2.98909C30.9856 2.66702 30.4866 2.70567 30.478 2.38359C30.478 2.40077 31.0157 2.25047 30.8092 2.10017C30.6716 1.99711 30.3533 1.97564 30.1812 1.91551C29.8328 1.79957 29.6177 2.08299 29.7682 2.08729C30.0349 2.09588 29.7467 2.25906 29.6908 2.27624C29.5488 2.31489 29.6262 2.51242 29.4671 2.58113C29.3681 2.62408 29.4456 2.44801 29.3553 2.4566C29.3467 2.4566 29.3724 3.01056 29.1531 2.88173C28.8219 2.68849 29.0154 2.53819 29.0154 2.31918C29.0154 2.229 28.71 2.06582 28.5982 2.14741C28.5379 2.19035 28.4304 2.44801 28.3487 2.46089C28.0863 2.49954 28.4347 2.0744 28.4261 2.08729C28.5207 1.97564 27.9185 2.02288 27.9314 2.03147C27.7507 1.9241 28.0862 1.84681 28.1207 1.81675C28.1723 1.75663 27.3894 1.29714 27.3808 1.2542C27.3722 1.22414 27.5959 1.11678 27.613 1.1039C27.8454 0.936419 27.613 1.06525 27.613 0.953597C27.6173 1.12537 28.7616 0.687345 28.5379 0.528456C28.482 0.485518 27.94 0.476929 27.8411 0.476929C27.7034 0.476929 27.5614 0.494107 27.4238 0.519873C27.1356 0.575695 27.4023 0.567106 27.3506 0.652996C27.2947 0.661585 27.2389 0.661585 27.1872 0.652996C27.17 0.648701 27.1442 1.42168 27.127 1.46891C27.0839 1.54621 26.9076 1.36585 26.8215 1.55909C26.7699 1.67504 26.9592 1.68363 26.8688 1.76521C26.5377 2.05723 27.4496 2.10447 27.4195 2.13453C27.3808 2.16888 27.2732 2.40077 27.2947 2.38789C27.3335 2.32777 27.3894 2.28483 27.4625 2.25047C27.6819 2.32777 27.2732 2.58113 27.1786 2.61119C26.8001 2.73573 27.2001 2.79584 26.9979 2.9075C26.8861 2.96762 26.6194 2.87315 26.7355 2.74861C26.9807 2.47807 26.5936 2.67131 26.4903 2.53389C26.4903 2.53389 26.9205 2.41795 26.9979 2.41795C27.5356 2.43513 26.8258 2.0787 26.813 2.20753C26.8818 2.16459 26.9549 2.1517 27.0366 2.16459C26.9678 2.17747 26.6194 2.04434 26.4947 2.01858C26.4602 2.00999 26.0429 2.25047 25.9999 2.29342C25.8451 2.42654 26.7097 2.28912 26.1677 2.55107C25.9569 2.65413 26.344 2.76579 25.8795 2.7572C25.6257 2.7572 25.359 2.88603 25.1138 2.85167C24.9245 2.82161 24.8944 2.74432 24.6793 2.76149C24.4298 2.77867 24.4126 2.50383 24.2707 2.50383C24.1674 2.50383 23.3802 2.78297 23.5308 2.82161C23.6684 2.85597 24.1631 2.56825 24.2362 2.62837C24.2362 2.62837 23.5566 2.83879 23.763 3.1308C23.9093 3.33693 23.6942 3.16516 23.6727 3.29828C23.6426 3.50441 23.5824 3.11362 23.591 3.17375C23.5093 2.61119 22.0983 3.37129 21.8101 3.11792C21.7068 3.02774 22.1757 2.92468 22.1585 2.88173C22.051 2.61549 21.139 2.70996 20.8465 2.69708C20.6228 2.68419 20.5024 2.54678 20.2529 2.58972C20.2098 2.59402 19.6334 2.89891 19.6894 2.79584C19.7152 2.74861 19.8485 2.53389 19.7195 2.53819C19.5818 2.53819 19.4183 3.03633 19.2549 2.8302C19.2463 2.82161 19.0269 2.33206 18.9237 2.49524C18.9581 2.43942 18.829 2.77438 18.8376 2.70137C18.8161 2.91609 18.6054 2.80443 18.5451 2.8302C18.3773 2.90321 18.158 3.00627 18.0031 3.10074C18.0031 3.10074 17.5256 3.46146 17.6245 3.33263C17.7708 3.1351 18.5365 2.87744 18.5838 2.73143C18.6311 2.55966 17.5729 3.19092 17.5342 3.16086C17.4783 3.11792 17.56 3.02774 17.4051 3.14368C17.3148 3.2124 17.1729 3.18233 17.0997 3.29398C17.0438 3.37987 17.2503 3.37558 17.1643 3.45717C17.0008 3.61176 16.4029 3.27681 16.2222 3.31546C15.7705 3.40563 15.3619 3.25533 14.9188 3.4314C14.8285 3.46146 13.9294 3.513 13.938 3.513C13.9724 3.24245 13.3745 3.63324 13.3314 3.5817C13.3487 3.53446 13.3745 3.49582 13.4089 3.46576C13.4347 3.28969 12.6647 3.90807 12.6776 3.8823C12.712 3.89519 12.7206 3.92956 12.7034 3.98535C12.6303 4.10134 12.355 4.10988 12.2345 4.3246C12.041 4.66816 12.0538 4.81844 11.757 4.94727C11.6108 5.01172 12.0324 5.36812 12.0452 5.41536C12.0968 5.56994 12.1872 5.41536 12.2948 5.39822C12.2388 5.40676 12.4926 5.65583 12.4754 5.5614C12.4539 5.47981 11.9721 6.19261 12.0238 5.72027C12.0151 5.69447 11.5377 6.17546 11.5247 6.3C11.5033 6.39019 11.714 6.33004 11.7011 6.36868C11.585 6.62635 11.8732 6.54906 11.942 6.50182C11.9721 6.48038 12.1055 6.47608 12.127 6.42453C12.1872 6.2914 12.4281 6.15396 12.3765 6.24845C12.2948 6.39879 12.4152 6.6779 12.2259 6.72944C12.0926 6.76809 12.1872 6.77669 12.084 6.95271C12.0324 7.0515 11.9807 6.92267 11.9334 6.94841C11.9248 6.94841 11.5592 7.82444 11.77 7.73001C11.7785 7.72571 11.8387 7.98338 11.8646 8.03487C11.9549 8.21525 12.1098 7.90603 12.1227 7.91893C12.1743 7.99192 12.1141 8.42567 12.1657 8.40847C12.2431 8.38703 12.2431 8.28823 12.3076 8.23245C12.4109 8.13796 12.4238 8.30544 12.4969 8.32688C12.4668 8.31834 12.6948 8.01342 12.7766 8.04777C12.8798 8.09501 12.4453 8.9066 12.4109 8.97105C12.3464 9.05264 11.9506 9.63666 11.9894 9.69251C11.9894 9.71395 12.5012 9.11702 12.5442 9.00109C12.6303 8.62319 13.2454 8.30544 13.2927 7.87169C13.2584 7.84165 13.2239 7.82444 13.1809 7.8202C13.1766 7.8202 13.5595 7.22758 13.6025 7.13309C13.7401 6.79813 13.9423 6.98705 13.9423 6.99135C13.8692 7.08584 13.71 6.94411 13.667 7.21898C13.667 7.21898 13.5681 7.64843 13.6369 7.54533C13.5895 7.57108 13.5551 7.61832 13.5336 7.68277C13.6068 7.76436 13.7616 7.55393 13.8305 7.47235C13.9767 7.30487 14.0627 7.34781 14.2004 7.25332C14.265 7.20608 14.0713 6.85398 14.2735 6.82817C14.3424 6.81957 14.5574 6.95271 14.579 6.93557C14.5875 6.93127 14.381 7.01716 14.4542 7.07724C14.4542 7.07724 14.7898 6.91837 14.7898 6.91406C14.8499 7.12879 15.1984 6.95271 15.392 6.89262C15.4393 6.87542 15.4866 6.99565 15.5425 6.99565C15.6157 6.99565 15.7447 6.80673 15.792 6.84968C15.9039 6.94841 15.6113 7.00425 15.8178 7.0687C15.8781 7.08584 16.2781 7.37355 16.3039 7.33491C16.3168 7.28767 16.3255 7.24472 16.3298 7.20178C16.3469 7.15883 16.5663 7.30917 16.5792 7.29196C16.6223 7.22328 16.5276 7.02576 16.5792 6.98705C16.6523 6.92697 16.6696 7.22758 16.6696 7.21898C16.6395 7.52389 16.4674 7.4208 16.4803 7.37786C16.4932 7.34351 16.1405 7.63982 16.4717 7.65273C16.5018 7.65273 16.5405 7.97478 16.5964 7.93614C16.6696 7.88459 16.5577 7.47664 16.6609 7.50239C16.6782 7.55393 16.6825 7.60978 16.6696 7.66987C16.7685 7.8159 16.846 7.29627 16.8287 7.33491C16.9105 7.15453 16.8416 7.68707 16.8416 7.66126C16.8416 7.63122 16.519 8.00482 16.7083 8.00052C16.6609 8.00052 16.8717 7.87599 16.8416 7.90603C17.0223 7.74285 16.9449 8.08211 17.104 7.97908C17.1729 7.93614 16.9879 7.85455 16.9965 7.8116C17.0266 7.62692 17.3148 7.88889 17.1471 8.02633C16.9535 8.1895 17.0481 7.98762 16.8933 8.02633C16.8976 8.02633 16.8503 8.43857 16.876 8.46001C16.9449 8.50726 17.2073 8.1938 17.3492 8.20234C17.3191 8.20234 17.5041 8.5717 17.5127 8.5674C17.2073 8.81217 17.7235 8.83361 17.7192 8.80357C17.7192 8.79067 17.6375 9.19437 17.7794 9.00539C17.8439 8.9195 18.0676 9.21151 17.9558 9.22872C17.702 9.25876 18.373 9.73975 18.3558 9.68821C18.4204 9.84278 18.7731 9.82988 18.8806 9.93297C18.9108 9.96302 19.4442 10.7489 19.0527 10.7875C19.0527 10.7875 18.9925 10.1777 18.7171 10.1305C18.5451 10.1005 18.5322 9.72255 18.3558 9.75689C18.3085 9.7655 17.7665 9.70105 17.8095 9.74829C17.973 9.92007 18.2397 10.0189 18.386 10.2464C18.5107 10.4354 18.8635 10.7918 18.8333 11.1053C18.7688 11.6979 18.5537 12.4494 18.5666 13.1408C18.5752 13.6862 19.0871 13.961 19.0742 14.442C19.0742 14.4634 19.4399 15.0131 19.4399 15.0174C19.6593 15.0088 20.1368 15.2536 20.1927 15.5112C20.24 15.7432 20.5153 16.5033 20.7003 16.6406C20.8594 16.7609 21.0315 16.821 21.0487 17.0701C21.0616 17.3192 20.8508 17.083 20.8293 17.1946C20.7863 17.3964 21.1993 17.4437 21.281 17.5038C21.5348 17.6971 21.4315 18.0191 21.5864 18.1479C21.6294 18.1866 22.2187 18.7148 22.193 18.732C22.4381 18.5559 22.1155 18.3025 21.9693 18.2768C21.8531 18.2553 21.4444 16.9928 21.2207 16.8296C21.2251 16.8296 20.6314 15.8805 20.8465 15.8548C20.924 15.8462 21.324 16.0738 21.324 16.0738C21.2724 16.1812 21.4401 16.9155 21.5348 16.8124C21.638 16.6879 22.6317 18.0535 22.7134 18.1393C23.0059 18.44 23.3157 18.7706 23.4576 19.1872C23.5006 19.316 23.3544 19.4577 23.3587 19.5135C23.3974 19.8399 23.5996 19.8356 23.8061 20.0031C24.2061 20.3381 24.7955 20.5313 25.2901 20.7331C25.673 20.8877 25.8752 21.0939 26.3053 20.9221C26.6323 20.7933 26.9463 21.0638 27.1743 21.2656C27.3506 21.4245 28.3788 22.0085 28.6283 21.8067C28.8003 21.6693 29.3079 22.8889 29.3381 22.8974C29.5618 22.9876 29.9016 23.3011 30.121 23.3269C30.6974 23.4042 30.8738 23.9452 31.0501 23.2796C31.205 22.7085 31.7728 23.9281 31.8201 24.0183C31.9147 24.1986 31.6954 24.4477 31.876 24.641C32.0868 24.8685 31.4975 25.0789 31.4545 25.182C31.3168 25.5255 31.0544 25.5857 30.9082 25.9163C30.8264 26.101 30.8308 26.1997 30.7834 26.3715C30.7103 26.612 30.9942 26.5133 31.0716 26.6335C31.1275 26.7237 30.7146 26.9684 30.6716 27.0543C30.5339 27.3334 30.8522 27.6298 31.0243 27.7543C31.4158 28.0292 31.5491 28.6046 31.7599 28.9653C31.8761 29.1671 32.1169 29.7941 32.2933 29.9015C32.56 30.0646 33.9495 30.61 33.9452 30.8934C33.9452 31.4689 33.8376 31.9928 33.829 32.5124C33.8247 32.7528 33.5881 33.0191 33.6139 33.2381C33.6182 33.2897 33.5494 33.7363 33.5193 33.762C33.4418 33.8479 33.3859 34.346 33.4074 34.4534C33.4461 34.6638 33.1494 35.0073 33.0375 35.1748C32.9687 35.2779 32.8267 35.4024 32.9643 35.5484C33.115 35.7117 32.7493 35.8705 32.8568 36.0294C32.9042 36.1067 32.5041 36.3901 32.8396 36.373C33.0074 36.3687 32.831 36.0938 33.0547 36.0552C33.1751 36.0552 32.9515 36.7981 32.9042 36.8196C32.8095 36.9097 32.887 36.5748 32.7235 36.6048C32.6503 36.622 32.8052 36.6907 32.8052 36.7079C32.8052 36.695 32.2718 36.9398 32.4138 36.9484C32.4224 36.9484 32.7536 36.8925 32.7579 36.9741C32.7579 37.0214 32.6289 37.0042 32.646 37.0729C32.6589 37.1245 32.93 37.0343 32.9127 37.1159C32.9213 37.0686 31.9191 37.2318 32.6762 37.1717C32.7751 37.1631 32.4309 37.3263 32.4525 37.3391C32.6159 37.4422 32.7063 37.2747 32.7579 37.2919C32.9429 37.3692 32.4181 37.5024 32.5385 37.5539C32.5686 37.5668 32.8181 37.5195 32.8611 37.5496C32.8826 37.5668 32.6848 37.6097 32.7192 37.614C32.831 37.6269 33.0547 37.5883 33.0891 37.6269C33.1321 37.6741 32.6503 37.6312 32.8095 37.7042C32.8697 37.7342 33.2655 37.6097 33.3386 37.6913C33.3214 37.6698 32.9084 37.7557 32.8826 37.7643C32.8826 37.7643 33.3859 37.7213 33.3988 37.7299C33.4375 37.76 32.8267 37.8244 32.8095 37.8029C32.831 37.8287 33.1666 37.8845 33.2225 37.8674C33.3171 37.8416 33.102 37.8545 33.1794 37.8244C33.2526 37.7987 33.5193 37.8588 33.4591 37.7686C33.4333 37.7299 33.7085 37.6698 33.7387 37.6956C33.7688 37.7213 33.5795 37.7342 33.5623 37.7514C33.5107 37.7987 33.7774 37.7686 33.8075 37.7815C33.7516 37.7643 33.6569 37.8674 33.6785 37.8631C33.5924 37.876 33.6355 37.8115 33.5881 37.8072C33.4591 37.7901 33.5537 37.8674 33.5408 37.8674C33.4935 37.8674 33.4118 37.8158 33.3558 37.8373C33.3945 37.8244 33.244 37.9146 33.244 37.8888C33.244 37.8631 33.5279 37.9576 33.5193 37.9533C33.558 37.9619 33.558 37.9103 33.6053 37.906C33.6139 37.906 33.7602 37.9962 33.8333 37.9662C33.8161 37.9576 33.8204 37.949 33.8419 37.9404C33.9193 37.9275 34.0097 37.9833 34.0699 37.9833C34.1603 37.9919 34.0097 37.9318 34.0699 37.9361C34.2162 37.9404 34.7453 37.8974 34.7711 37.8974C34.6894 37.8888 33.9709 37.8029 34.0355 37.76C34.1946 37.6483 33.7731 37.7256 33.8247 37.6656C33.8591 37.6226 34.0183 37.6827 34.0742 37.6656C34.0957 37.6612 33.8892 37.4895 34.0742 37.4036C34.2721 37.3177 34.6851 37.176 34.7883 37.0386C34.8657 36.9398 34.0054 36.8754 34.5861 36.6864C34.9216 36.5748 34.9818 36.4889 35.2185 36.3042C35.2012 36.2828 35.1755 36.2656 35.141 36.2527C35.141 36.2656 35.6701 36.2484 35.4593 36.1539C35.2615 36.0681 35.2529 36.2398 35.1152 36.0337C34.9431 35.776 35.5325 35.9908 35.7347 35.9135C35.9454 35.8404 35.782 35.5871 35.8938 35.5184C35.9454 35.4883 36.552 35.484 36.638 35.4711C37.0166 35.4067 37.0983 35.3209 37.3349 35.1319C37.5629 34.9559 36.9864 34.578 36.995 34.5694C37.2617 34.3976 37.8511 34.8442 38.2512 34.4878C38.3587 34.4062 39.1502 33.5344 39.1803 33.5473C39.2276 33.5902 38.9738 33.8651 38.9437 33.8737C39.589 33.689 39.8815 32.8473 39.9675 32.4007C40.0105 32.1731 40.7504 32.0486 40.8451 31.9154C41.0601 31.6192 41.4602 31.7394 41.7355 31.6707C42.0323 31.602 42.4367 30.8462 42.5227 30.5714C42.6174 30.2751 42.8195 30.0904 42.8238 29.7297C42.8238 29.6009 42.8497 29.0512 42.9099 28.9696C42.983 28.8751 43.0303 29.0383 43.1249 28.9782C43.3745 28.815 43.3357 28.5015 43.6412 28.3512C44.0627 28.1451 44.3982 26.8353 43.8563 26.904C43.7401 26.9212 43.9724 26.8869 43.8563 26.904L43.8648 26.8869ZM27.7335 20.3638C27.8024 20.3638 27.9529 20.3681 28.0734 20.3724C27.9529 20.3724 27.8024 20.3681 27.7335 20.3638ZM28.2067 20.3724C28.1421 20.3724 28.2325 20.3724 28.2067 20.3724V20.3724Z" fill="white"/>
<path d="M32.788 19.6295C32.8568 19.5436 31.4158 18.9423 31.3297 18.8994C30.9555 18.7319 30.5554 18.5859 30.1425 18.7019C30.108 18.7105 29.5273 18.938 29.622 19.0626C29.7854 19.2816 30.1597 18.5859 30.4049 18.8522C30.6414 19.1098 30.9383 18.9509 31.2222 19.1442C31.4889 19.3245 32.3665 20.1576 32.7923 19.6252C32.7364 19.6938 32.8483 19.5564 32.7923 19.6252L32.788 19.6295Z" fill="white"/>
<path d="M31.5147 20.2306C31.5706 20.3251 32.0911 20.4625 32.147 20.3423C32.203 20.2178 31.4458 20.1147 31.5147 20.2306Z" fill="white"/>
<path d="M35.0335 20.2522C35.154 20.4411 35.5067 20.3252 35.5369 20.2522C35.5928 20.1148 34.9088 20.0632 35.0335 20.2522Z" fill="white"/>
<path d="M36.238 37.6183C36.3155 37.6311 36.6725 37.5754 36.6424 37.5453C36.5779 37.4852 36.1563 37.6054 36.238 37.6183Z" fill="white"/>
<path d="M35.9283 37.6139C36.0445 37.6354 36.3413 37.5152 36.2295 37.5066C36.1176 37.5023 35.8165 37.5924 35.9283 37.6139Z" fill="white"/>
<path d="M27.6259 25.7402C27.5011 25.9292 27.7678 26.1181 27.8195 26.0365C27.884 25.9378 27.7507 25.5556 27.6259 25.7402Z" fill="white"/>
<path d="M38.8705 2.12162C38.8619 2.00997 38.1693 1.69649 38.1134 1.86826C38.0058 2.19463 38.8834 2.32775 38.8705 2.12162C38.8748 2.2161 38.8662 2.02715 38.8705 2.12162Z" fill="white"/>
<path d="M46.2824 2.63263C46.2178 2.6541 45.2758 2.44368 45.2758 2.46086C45.2801 2.46944 45.5468 2.1216 45.422 2.11302C45.5124 2.11302 46.5405 2.88599 46.2996 2.36209C46.1576 2.05719 45.7404 1.98848 45.5855 1.73083C45.5296 1.63206 46.0157 1.85107 46.063 1.821C46.2222 1.72224 46.0501 1.57623 45.8694 1.55046C45.7447 1.53329 45.4607 1.62777 45.3403 1.51181C45.3661 1.53329 45.4608 1.27993 45.4608 1.28422C45.4608 1.28422 46.1103 1.46888 46.1921 1.47746C46.6696 1.51181 46.0931 1.25416 45.9941 1.17686C45.9468 1.13392 46.6653 1.27993 46.5706 1.11674C46.5577 1.09527 46.1619 0.979325 46.0802 0.910613C45.8952 0.751724 46.4759 0.889141 46.4631 0.760313C46.4459 0.567074 45.5511 0.245001 45.5812 0.223529C45.7274 0.120468 46.2781 0.300823 46.4846 0.296529C46.7255 0.28794 45.878 -0.0384218 45.8952 0.00451684C45.8393 -0.0985442 46.1533 0.0302837 46.1835 -0.012661C46.2781 -0.150078 45.4436 -0.137195 45.521 -0.0985442C45.379 -0.171544 45.6974 -0.476439 45.7963 -0.497912C45.7834 -0.497912 46.1405 -0.871518 46.2308 -0.746985C46.0587 -0.983168 45.7877 -0.716923 45.6457 -0.798512C45.5167 -0.867224 46.4716 -0.92734 46.4372 -0.940224C46.3684 -0.978874 45.8565 -1.039 45.8479 -1.02611C45.9167 -1.13776 47.3406 -1.00894 47.2374 -1.26659C47.203 -1.34819 46.6394 -1.42119 46.5577 -1.42977C46.3899 -1.45125 46.1576 -1.46843 46.0501 -1.4083C45.9425 -1.34819 46.0931 -1.2623 45.8479 -1.30524C45.7834 -1.31812 45.3661 -1.39542 45.3446 -1.38683C45.1339 -1.32671 44.9402 -1.112 44.6778 -1.1077C44.6391 -1.1077 44.8327 -1.29665 44.8413 -1.30524C44.9876 -1.42119 44.8112 -1.67026 44.5574 -1.53284C44.4929 -1.49849 43.8692 -1.29665 43.7917 -1.36966C43.71 -1.44695 44.2219 -1.45125 44.1789 -1.51137C44.0885 -1.6359 42.5141 -1.49419 42.4969 -1.51996C42.3936 -1.66596 44.7854 -1.54572 44.9316 -1.69602C44.9231 -1.69602 43.6412 -1.94939 43.4218 -1.94509C42.7808 -1.96227 42.1398 -2.0138 41.5075 -1.98803C41.1763 -1.97515 41.1032 -1.97515 41.0559 -1.89356C41.0128 -1.82056 40.6558 -1.98374 40.5052 -1.92362C40.4837 -1.91503 39.1201 -1.89356 39.1373 -1.88927C39.1846 -1.87638 39.4298 -1.85062 39.4298 -1.82485C39.4298 -1.79909 39.0943 -1.81626 39.0427 -1.80338C38.9652 -1.7862 39.8083 -1.6402 39.7739 -1.59725C39.718 -1.5586 38.4189 -1.8635 38.2081 -1.79909C38.1135 -1.77332 38.5307 -1.70461 38.5479 -1.67455C38.5866 -1.59725 37.9027 -1.74755 37.8898 -1.75185C37.5241 -1.82915 37.9672 -1.60155 37.6532 -1.58008C37.7263 -1.58437 37.5629 -1.76473 37.4295 -1.77761C37.3005 -1.79479 36.5047 -1.76044 36.4272 -1.72608C36.4574 -1.70461 36.5004 -1.68314 36.5563 -1.66596C36.5218 -1.61443 35.6486 -1.80767 35.9024 -1.61872C36.1003 -1.46843 35.3991 -1.5586 35.1496 -1.51566C35.0765 -1.50708 34.2032 -1.3353 34.5302 -1.30524C34.6377 -1.29665 35.1109 -1.33101 35.0722 -1.22794C35.0206 -1.07335 34.7066 -1.06047 34.4183 -1.06047C34.1258 -1.06047 33.8505 -0.983168 33.5494 -0.953107C33.4676 -0.944518 33.1622 -0.92734 33.1665 -0.858635C33.1709 -0.716923 33.5838 -0.785629 33.7301 -0.70404C33.8849 -0.613862 34.2291 -0.635329 34.4097 -0.669684C34.6076 -0.708335 34.913 -0.575212 34.7539 -0.562329C34.6678 -0.558034 33.4977 -0.579507 33.5236 -0.51509C33.5666 -0.416323 34.0527 -0.502206 34.0742 -0.416323C34.0871 -0.369084 33.8849 -0.330433 34.0742 -0.287495C34.2592 -0.248845 34.5 -0.158667 34.7066 -0.16725C34.8399 -0.175838 34.5388 -0.278906 34.8571 -0.24455C35.0077 -0.227372 35.1754 -0.266022 35.3088 -0.24455C35.5109 -0.210194 35.8508 -0.227372 36.1046 -0.193016C36.2982 -0.16725 36.4574 -0.120017 36.6423 -0.0727774C36.9133 -0.00836658 36.8315 0.107584 37.0639 0.197762C37.4596 0.356651 37.4123 0.498363 37.7091 0.683019C37.8339 0.760313 37.722 0.807552 37.907 0.919202C38.0705 1.01368 37.7005 1.04803 37.8081 1.13392C37.9199 1.2241 37.7091 1.34863 37.9672 1.38728C38.1866 1.42164 38.1565 1.27563 38.3458 1.28422C38.2425 1.27563 39.1071 1.77377 39.1071 1.77807C39.1114 1.79524 38.178 1.55476 38.1952 1.675C38.221 1.85965 38.9394 1.90689 39.0771 1.98419C39.2663 2.09154 39.1975 2.31056 39.1846 2.44797C39.1846 2.5038 38.7716 2.43079 38.7028 2.46944C38.4017 2.64122 38.4705 2.90746 38.7544 3.07065C38.7974 3.09641 38.4748 3.21236 38.6469 3.37125C38.8663 3.57308 39.0384 3.5602 39.047 3.83933C39.047 4.03255 40.1611 5.40672 40.4493 5.36378C40.716 5.31229 41.4903 6.00795 41.6323 5.73738C41.6624 5.67729 41.7871 5.26075 41.8044 5.26075C42.0022 5.2221 41.6624 4.8571 41.6968 4.80556C41.7828 4.66812 42.1958 4.71107 42.1528 4.40185C42.1442 4.34607 42.1528 3.87798 42.0409 3.92091C42.1227 3.94236 42.2044 3.96817 42.2818 3.98961C42.4582 3.91662 42.0495 3.78779 42.4926 3.79209C42.6733 3.79209 42.656 3.50437 42.7722 3.56449C42.8066 3.62461 42.8152 3.68473 42.798 3.74485C42.897 3.92091 43.7831 3.52155 43.8046 3.35836C43.8218 3.26389 44.1057 3.22524 44.0584 3.12647C43.9423 2.89458 44.3294 3.14365 44.394 3.06635C44.5058 2.93752 45.1769 3.03629 45.3489 3.01482C45.706 2.96758 46.1017 2.70133 46.2824 2.63263C46.3598 2.60257 46.2049 2.66269 46.2824 2.63263Z" fill="white"/>
<path d="M41.1333 37.79C41.1333 37.8243 41.4302 37.9188 41.5291 37.8716C41.6882 37.7986 41.1333 37.7857 41.1333 37.79C41.1333 37.8243 41.1333 37.7685 41.1333 37.79Z" fill="white"/>
<path d="M34.0326 1.25657C33.9681 1.33387 34.2778 1.58294 34.4068 1.58294C34.4885 1.58294 35.2156 1.49276 35.2156 1.47558C35.2156 1.30381 34.1101 1.1578 34.0326 1.26086C33.9594 1.35964 34.1057 1.1621 34.0326 1.26086V1.25657Z" fill="white"/>
<path d="M26.1634 -0.291823C25.9268 -0.339056 26.1978 -0.0813997 26.2279 -0.0856942C26.0903 -0.0599274 25.9139 -0.227406 25.7891 -0.171577C25.6558 -0.115756 25.8666 -0.0513384 25.8279 0.000189096C25.7332 0.103256 25.3718 -0.407767 25.1783 -0.197344C24.847 0.163373 25.9956 0.0431337 26.172 0.0646061C26.2838 0.073195 25.845 0.348029 26.3914 0.275029C26.4129 0.275029 26.9764 0.176256 26.8645 0.0774896C26.7527 -0.0255716 26.9291 -0.145817 26.7312 -0.240289C26.6408 -0.283234 26.3139 -0.257467 26.1591 -0.287528C25.9741 -0.321878 26.3441 -0.253172 26.1591 -0.287528L26.1634 -0.291823Z" fill="white"/>
<path d="M16.9061 8.71336C16.7254 8.84219 17.0566 9.32319 17.1771 9.22439C17.2072 9.19865 17.1771 8.51154 16.9061 8.71336C17.0867 8.58022 16.7254 8.84649 16.9061 8.71336Z" fill="white"/>
<path d="M19.9131 1.88976C19.9904 1.88976 20.1367 2.2333 20.2228 2.13024C20.3432 1.97994 20.6056 2.0143 20.7605 1.92841C20.8594 1.86829 21.1734 1.54193 21.2465 1.45174C21.3455 1.32291 21.9176 1.1855 22.0853 1.1125C22.679 0.846246 20.055 0.78613 20.0722 1.0352C20.0722 1.1082 20.2572 1.12108 20.1755 1.21556C20.1539 1.24133 19.9087 1.42598 19.9474 1.45174C20.1453 1.58486 19.229 1.84682 19.9131 1.88976C20.0894 1.89835 19.7367 1.88117 19.9131 1.88976Z" fill="white"/>
<path d="M20.7819 0.399562C20.9454 0.330851 21.0099 0.365207 21.1647 0.262139C20.9195 0.421029 21.6422 0.292201 21.5261 0.236379C21.6164 0.275023 22.0165 -0.162995 21.9219 0.0603114C21.7885 0.382384 22.6574 -0.235995 22.58 -0.235995C22.3692 -0.261762 21.9089 -0.223111 21.6379 -0.0942834C21.3583 0.0431335 21.1862 0.107544 20.9023 0.206317C20.683 0.279317 20.7432 0.416734 20.7776 0.403857C20.6873 0.442501 20.8679 0.365206 20.7776 0.403857L20.7819 0.399562Z" fill="white"/>
<path d="M22.3649 0.124706C22.3305 0.137589 22.2961 0.150472 22.2617 0.163356C22.1713 0.244945 22.4854 0.244945 22.4854 0.24065C22.3907 0.266417 22.0767 0.253534 22.0423 0.373773C22.0294 0.416717 22.352 0.335129 22.3994 0.339423C22.3735 0.339423 21.896 0.481134 21.9089 0.494018C22.1068 0.725907 22.5671 0.3523 22.7564 0.3523C22.7392 0.390951 22.7392 0.425306 22.7564 0.459662C22.8381 0.459662 23.2941 0.335129 23.3027 0.395245C23.3113 0.485429 22.6746 0.558429 22.6058 0.605668C22.4381 0.717318 22.8854 0.704435 22.9199 0.70014C23.1436 0.665784 23.4747 0.575607 23.6684 0.455368C23.9049 0.305067 24.4727 0.494018 24.7223 0.287889C25.1911 -0.0943061 24.4125 0.133295 24.3308 0.0688776C24.2577 0.0130556 23.9738 -0.390612 23.7458 -0.0127112C23.7802 0.0130556 23.8275 0.0302335 23.892 0.0345279C23.8361 -0.0298891 23.7931 0.335129 23.9308 0.223472C23.7027 0.412423 23.307 0.124706 23.1952 0.0946444C23.0403 0.0559942 22.8252 0.111822 22.7392 0.0259391C22.6402 -0.0771282 22.4854 0.103233 22.3649 0.120411C22.2144 0.137589 22.5155 0.103233 22.3649 0.120411V0.124706Z" fill="white"/>
<path d="M35.8036 9.31024C35.8337 9.40897 36.608 9.72678 36.6295 9.58935C36.6511 9.45191 35.7821 9.22435 35.8036 9.31024Z" fill="white"/>
<path d="M21.5218 0.433926C21.7068 0.433926 21.9304 0.296509 21.9433 0.232098C21.9519 0.167681 21.4314 0.433926 21.5218 0.433926Z" fill="white"/>
<path d="M33.4517 1.59036C33.8551 1.56393 33.422 1.30955 33.3129 1.48134C33.2765 1.5342 33.0219 1.31946 32.9326 1.31285C32.7773 1.29964 32.7938 1.1741 32.5921 1.15098C32.5227 1.14107 32.4566 1.13776 32.3872 1.13776C32.159 1.13776 32.2549 1.2666 32.1359 1.28642C32.04 1.30294 32.0664 1.19392 31.9838 1.20714C31.8846 1.22035 31.7954 1.29964 31.6962 1.29964C31.8152 1.29303 31.5904 0.936241 31.5805 0.916415C31.4978 0.77436 31.1903 0.93954 31.0713 0.959366C30.8531 0.995706 30.539 1.09151 30.7969 1.23687C30.8432 1.2633 30.6051 1.32276 30.6778 1.36902C30.7407 1.40866 30.8828 1.39214 30.8862 1.47143C30.8862 1.52098 30.5158 1.43178 30.5423 1.28973C30.5225 1.23687 30.5126 1.18401 30.5126 1.12785C30.5622 1.06178 30.8531 0.952755 30.8564 0.896596C30.8696 0.741325 29.9803 1.07499 29.9042 1.16089C29.8017 1.27321 29.7786 1.40205 29.8116 1.52759C29.8381 1.6267 30.2679 1.49786 30.3208 1.60357C30.3505 1.66634 29.8745 1.58706 29.8778 1.66634C29.8877 1.85795 30.8895 1.85135 31.0614 1.87448C31.1837 1.88769 32.0664 1.82161 32.0763 1.84143C32.0202 1.81831 31.9838 1.78197 31.9706 1.73572C31.9904 1.68947 32.7078 1.99341 32.7211 2.05618C32.7277 2.09912 32.4467 2.14868 32.5161 2.18832C32.645 2.261 32.817 2.02314 32.9261 2.16189C33.0484 2.32047 33.2005 2.2577 33.3624 2.42949C33.4385 2.50877 33.3129 2.72681 33.4352 2.73672C33.6369 2.74994 33.7691 2.6211 33.951 2.74663C34.113 2.85896 34.0534 2.89861 33.865 2.94155C33.6997 2.97789 33.7328 2.86227 33.5873 2.8061C32.9029 2.5319 33.2964 3.14638 32.8897 3.17281C32.7343 3.17941 32.4797 3.19263 32.3475 3.19593C32.1524 3.19593 32.1259 3.44701 32.3475 3.45362C32.688 3.46022 32.9492 3.32477 33.2401 3.38094C33.5906 3.44701 33.5013 3.81702 33.8782 3.85996C34.0435 3.87649 34.7147 4.29606 34.837 4.16722C34.9296 4.06481 34.2683 3.60889 34.2122 3.64853C34.3477 3.55933 34.6221 3.76085 34.7312 3.8038C34.9065 3.86987 35.4023 3.76746 35.1048 3.62871C34.956 3.55933 35.0552 3.31817 34.8105 3.31486C34.7345 3.31486 34.3113 3.09352 34.4469 3.04727C34.5262 3.01754 34.4138 2.77967 34.5924 2.84574C34.8271 2.93164 34.9362 3.06709 35.1313 3.19924C35.3363 3.33469 35.852 2.81271 35.8454 2.81271C35.7231 2.70038 35.4023 2.78958 35.3891 2.60788C35.3825 2.52859 35.085 2.42949 35.0056 2.44931C34.9164 2.46913 34.5857 2.34359 34.4932 2.31386C34.0435 2.15198 34.6056 2.15528 34.6221 2.12225C34.6651 2.04626 34.3874 2.08591 34.3775 2.02975C34.3609 1.95376 34.599 2.00001 34.48 1.8976C34.3246 1.75884 34.3708 1.88769 34.232 1.88439C34.1559 1.88439 34.3212 1.75884 34.2221 1.7192C34.1196 1.67956 33.8947 1.72581 33.822 1.67956C33.7261 1.62009 33.4319 1.60688 33.4484 1.60688C33.3559 1.61348 33.541 1.60027 33.4484 1.60688L33.4517 1.59036Z" fill="white"/>
<path d="M33.7139 1.15659C34.0451 1.11365 33.6408 0.795871 33.3955 0.813049C33.2106 0.825933 33.0471 1.002 33.1461 1.13942C33.2708 1.3026 33.5461 1.17806 33.7096 1.15659C33.5633 1.17377 33.8559 1.13942 33.7096 1.15659H33.7139Z" fill="white"/>
<path d="M31.02 4.0584C31.0888 3.78783 29.7467 3.58171 29.7639 3.35841C29.7768 3.1437 29.3767 3.64183 29.3509 3.71054C29.3423 3.72772 29.1186 4.17863 29.1014 4.13999C29.0928 4.12279 29.751 4.27312 29.7724 4.26452C29.9015 4.21298 30.0865 4.01115 30.2242 3.99825C30.336 3.98535 30.9554 4.30317 31.0243 4.0584C30.9984 4.16143 31.0501 3.95531 31.0243 4.0584H31.02Z" fill="white"/>
<path d="M38.3587 8.8551C38.462 8.80356 38.1522 8.77782 38.006 8.95813C37.9286 9.05263 37.7651 9.233 37.7694 9.37038C37.7823 9.68819 37.6619 9.52502 37.4855 9.68389C37.1026 10.0318 37.6059 10.109 37.864 10.1434C37.8425 10.1434 38.6556 10.0747 38.591 10.1906C38.5394 10.2379 38.505 10.298 38.4878 10.3667C38.4577 10.1133 39.7654 10.7661 39.09 10.1734C39.0169 10.109 39.1717 9.93726 39.133 9.92006C38.7631 9.76118 39.1674 9.62805 38.7072 9.63665C38.7588 9.63665 37.9888 9.2158 38.1135 9.38758C38.0361 9.28025 38.2727 8.90665 38.3587 8.86371C38.2426 8.92379 38.4749 8.80356 38.3587 8.86371V8.8551Z" fill="white"/>
<path d="M31.2049 4.86566C31.2953 4.85282 31.476 4.58655 31.248 4.59945C31.02 4.61229 31.0673 4.88286 31.2049 4.86566Z" fill="white"/>
<path d="M25.2514 0.287974C25.3417 0.227858 25.1309 0.120502 25.0406 0.223563C24.9502 0.326624 25.161 0.352391 25.2514 0.287974Z" fill="white"/>
<path d="M26.0946 1.47322C26.1935 1.52045 26.6065 1.37874 26.7183 1.31862C26.8388 1.24562 27.1098 0.734598 26.8603 0.824776C26.7786 0.854837 26.899 0.98796 26.8086 1.00084C26.8775 0.992254 26.4602 0.872015 26.4775 0.884899C26.4086 0.807598 27.1055 0.683065 26.7656 0.60147C26.6452 0.571415 26.5721 0.412525 26.3311 0.575709C26.3441 0.605764 26.3699 0.627236 26.4129 0.644414C26.4043 0.657298 25.9397 0.64012 25.858 0.665887C25.3977 0.820481 26.0558 0.799009 26.0644 0.837659C26.1204 1.15544 25.4622 0.884899 25.3719 0.98796C25.2815 1.08243 25.9741 1.41309 26.0946 1.46892C25.8623 1.35727 26.3268 1.58057 26.0946 1.46892V1.47322Z" fill="white"/>
<path d="M30.0951 4.64663C30.293 4.74966 30.607 4.45765 30.5854 4.37606C30.564 4.29017 29.8585 4.52203 30.0951 4.64663Z" fill="white"/>
<path d="M27.6562 0.0603522C27.4884 -0.0169421 26.9206 0.206358 26.9894 0.240714C27.2604 0.373836 28.267 0.339487 27.6562 0.0603522C27.8627 0.154831 27.4497 -0.03412 27.6562 0.0603522Z" fill="white"/>
<path d="M28.1551 0.16335C28.1939 0.257822 28.7144 0.348 28.852 0.275C29.0327 0.176233 29.3295 0.296472 29.5919 0.300767C29.9317 0.300767 30.1167 0.236349 30.4006 0.193405C30.6544 0.154761 31.0459 0.365178 31.2911 0.171939C31.8804 -0.291846 28.8993 0.0946381 28.7014 -0.0986069C28.6671 -0.132957 28.8907 -0.201668 28.9208 -0.22314C29.037 -0.300435 28.1164 -0.309024 28.082 -0.313318C27.8282 -0.339085 27.4281 -0.510858 27.1314 -0.360557C26.9722 -0.283257 27.7078 -0.18449 27.7981 -0.193079C28.2842 -0.22314 28.0777 -0.0256009 28.1594 0.16335C28.1035 0.0259327 28.2153 0.300767 28.1594 0.16335H28.1551Z" fill="white"/>
<path d="M24.3525 1.7863C24.3726 1.76967 24.9191 1.79296 24.5235 1.64992C24.4128 1.61 23.9267 1.53017 23.9636 1.41041C23.9971 1.28068 23.7691 1.09773 23.9636 0.967996C24.433 0.658634 23.6216 0.844918 23.6384 0.858226C23.6752 0.898141 23.863 0.92475 23.8496 0.987957C23.8496 0.977973 23.2059 0.751779 23.407 1.21415C23.4808 1.3838 23.2696 1.40376 23.2428 1.22746C23.2327 1.17756 22.941 0.941381 22.8739 1.06446C22.8405 1.12434 23.0349 1.0944 22.9913 1.17091C22.9812 1.19087 22.6761 1.19752 22.6895 1.23079C22.6694 1.17423 22.5354 0.92475 22.3309 1.13099C22.3242 1.13764 22.0861 1.38713 22.0861 1.23079C22.0861 1.24742 22.4649 0.908119 22.0559 1.04118C21.9486 1.07444 21.3753 1.35387 21.3385 1.35054C21.1004 1.32725 21.3653 1.63329 21.3586 1.58671C21.3887 1.73308 21.6972 1.48027 21.828 1.5468C21.8414 1.55345 21.144 1.7231 21.3385 1.79961C21.4424 1.83953 22.4951 1.66655 22.475 1.79961C22.4649 1.81957 21.258 1.94264 21.4089 2.07903C21.5631 2.22207 21.8246 2.10231 22.0258 2.13891C22.0961 2.14889 22.0258 2.27197 22.123 2.29857C22.2638 2.33517 22.485 2.31188 22.6493 2.26864C23.0014 2.1755 23.5177 1.86281 23.7658 2.06573C23.8831 2.16219 24.2419 2.09899 24.4027 2.02914C24.6777 1.90938 24.1245 1.87612 24.1379 1.90273C24.2016 1.85616 24.2754 1.81624 24.3525 1.7863C24.4128 1.7364 24.2921 1.8362 24.3525 1.7863Z" fill="white"/>
<path d="M12.5227 19.1184C12.484 19.127 12.5097 19.273 12.5356 19.2386C12.5786 19.1785 12.5614 19.1098 12.5227 19.1184Z" fill="white"/>
<path d="M12.613 19.3332C12.5356 19.346 12.6001 19.6682 12.6216 19.6338C12.6603 19.578 12.7937 19.3031 12.613 19.3332C12.6776 19.3203 12.5485 19.346 12.613 19.3332Z" fill="white"/>
<path d="M13.4563 7.95328C13.4434 8.00483 12.9659 8.44711 13.0778 8.60605C13.0993 8.63609 13.2283 8.5459 13.2541 8.51586C13.4305 8.30544 13.3617 8.34838 13.3617 8.168C13.3617 8.1766 13.4477 8.01343 13.4563 7.94898C13.4477 8.00913 13.4649 7.88889 13.4563 7.94898V7.95328Z" fill="white"/>
<path d="M48.2311 5.07179C48.885 5.15768 48.0935 4.06693 47.8053 4.18722C47.7795 4.19576 47.7278 4.44913 47.5945 4.29025C47.5041 4.18292 47.1858 4.32889 47.2117 4.3375C47.1687 4.27735 47.117 4.23016 47.0568 4.19146C47.0654 4.19146 47.0052 4.59946 46.8417 4.41478C46.7556 4.31599 46.8417 4.26451 46.7815 4.19576C46.7342 4.14428 46.3255 3.92955 46.3728 4.00684C46.4416 4.04118 46.4761 4.08413 46.4718 4.13567C46.3427 4.10557 46.1491 4.02828 46.1577 4.24731C46.1621 4.36754 46.5879 4.30315 46.6653 4.37614C46.8374 4.53502 46.2868 4.54792 46.2868 4.55222C46.39 4.70249 47.1084 4.66385 46.6223 4.89148C46.6912 4.85707 47.1944 5.12334 47.3493 5.20923C47.6633 5.38101 47.9515 5.03315 48.2311 5.07179C48.3516 5.089 48.1107 5.05465 48.2311 5.07179Z" fill="white"/>
<path d="M49.9603 9.80406C50.3087 9.86845 50.6485 9.62368 50.4292 9.09981C50.3561 8.92373 50.7045 9.06546 50.4206 8.67466C50.3948 8.63602 49.9947 8.63172 49.9947 8.67466C50.0205 8.72621 50.055 8.77345 50.0937 8.8078C50.1151 8.95377 49.7883 8.82494 49.7495 8.84214C49.6764 8.87648 49.9259 9.30593 49.9259 9.30163C49.8872 9.43476 49.5903 9.73108 49.9603 9.79976V9.80406Z" fill="white"/>
<path d="M50.2786 7.54957C50.2399 7.49373 50.128 7.72135 50.1796 7.73425C50.2528 7.7471 50.3173 7.60542 50.2786 7.54957Z" fill="white"/>
<path d="M50.2657 7.85877C50.1926 7.92745 50.4463 8.03909 50.4334 8.06489C50.3388 8.25381 50.4463 8.17222 50.4765 8.344C50.4334 8.38694 50.3904 8.42559 50.3431 8.45993C50.3947 8.48997 50.4334 8.48143 50.4636 8.42989C50.4722 8.42559 50.485 8.59307 50.5539 8.59307C50.6055 8.59307 50.6184 8.41699 50.6357 8.42559C50.7131 8.45993 50.6227 8.80779 50.627 8.82493C50.6571 8.98387 50.9152 8.81209 50.9281 8.84643C50.954 8.89368 51.083 9.43476 50.9755 9.43046C50.9668 9.43046 50.769 9.32313 50.7991 9.40471C50.7733 9.34457 50.8808 9.73107 50.8722 9.66232C50.8894 9.79116 50.6657 9.74821 50.6916 9.8384C50.726 9.94149 51.1303 10.0231 51.1346 10.0445C51.1475 10.0746 50.5883 10.182 50.7303 10.4439C50.7647 10.4997 51.0873 10.3022 51.1605 10.3408C51.3239 10.4138 51.7455 10.2249 51.7756 10.2549C51.7412 10.2635 51.7067 10.2421 51.6853 10.1863C51.6853 10.0445 51.9691 9.86844 51.7067 9.72677C51.6723 9.71817 51.6465 9.72677 51.6293 9.75681C51.5605 9.72247 51.5906 9.56789 51.5734 9.55929C51.4745 9.50775 51.5089 9.17279 51.3712 9.0912C51.1862 8.97957 51.2508 8.59307 50.9668 8.54582C51.0056 8.55012 51.1088 8.11213 51.1002 8.02194C51.0916 7.89741 50.769 7.9575 50.7174 7.88451C50.6744 7.82012 50.9281 7.64834 50.8378 7.52811C50.8292 7.51091 50.4722 7.57099 50.4937 7.72993C50.541 8.03909 50.3216 7.81152 50.2786 7.85017C50.2313 7.89311 50.3259 7.80722 50.2786 7.85017L50.2657 7.85877Z" fill="white"/>
<path d="M50.7559 9.6946C50.7559 9.6946 50.7817 9.93507 50.842 9.76329C50.8505 9.73755 50.8936 9.45414 50.8764 9.42403C50.7516 9.20501 50.743 9.6903 50.7516 9.6989C50.7215 9.6731 50.7817 9.72464 50.7516 9.6989L50.7559 9.6946Z" fill="white"/>
<path d="M51.3581 0.380237C51.3581 0.380237 51.3366 0.380237 51.3237 0.380237C51.3064 0.371648 51.3409 0.32012 51.3581 0.268587V0.191286C51.3581 0.191286 51.3452 0.174115 51.3366 0.165526C51.3021 0.135464 51.1043 0.0238142 51.0656 0.00663635C50.8935 -0.0749586 51.1301 0.547715 51.1215 0.560598C51.1215 0.573482 50.9107 0.315826 50.9021 0.247114C50.8505 -0.160842 50.6784 0.345881 50.6784 0.345881C50.6655 0.345881 50.5365 0.174108 50.4892 0.161231C50.5235 0.16982 50.6913 0.118286 50.6612 0.0839306C50.5838 -0.00195263 50.33 0.0667528 50.2311 0.032397C50.1966 0.0195197 50.0417 0.0839306 50.0417 0.135464C50.0461 0.448948 50.1923 0.268587 50.2998 0.307237C50.2009 0.272881 50.2268 0.766727 50.5537 0.839727C50.601 0.85261 50.9107 0.594954 50.9193 0.642187C50.8935 0.680838 50.8849 0.728077 50.8935 0.779604C50.9408 0.809666 51.1 0.70231 51.1215 0.732371C51.229 0.929911 50.5451 0.955672 50.6182 1.03727C50.6612 1.0845 51.1559 1.17039 51.1731 1.1618C51.1258 1.18327 50.6698 1.13174 50.6655 1.20904C50.6612 1.37222 50.9666 1.44522 51.0269 1.48817C51.0096 1.53111 50.9838 1.54828 50.9451 1.55258C50.9451 1.55258 51.2204 1.86606 51.2032 1.67712C51.1946 1.54399 51.2807 1.46669 51.3538 1.39798V0.388826L51.3581 0.380237Z" fill="white"/>
<path d="M50.1621 0.646564C50.2095 0.693797 50.2568 0.736742 50.3041 0.775392C50.2395 0.771097 50.1449 0.423257 50.0244 0.440435C49.9384 0.453319 50.1363 0.63368 50.1621 0.646564C50.2138 0.66803 50.1105 0.625091 50.1621 0.646564Z" fill="white"/>
<path d="M50.0461 7.62909C50.0591 7.68924 49.9515 7.79227 49.9515 7.79227C49.9343 7.75362 49.9171 7.71498 49.8956 7.68494C49.8569 7.68494 49.8698 7.85242 49.8741 7.90396C49.8827 8.00269 49.9859 7.81807 50.029 7.95545C50.0504 8.02419 49.9558 8.06284 49.9472 8.08428C49.8999 8.20027 50.2871 8.47508 50.3344 8.43644C50.3903 8.39349 50.4548 8.32905 50.4892 8.24322C50.4849 8.25606 50.6097 8.08858 50.5968 8.09288C50.6097 8.09288 50.928 9.32962 50.9237 9.42411C50.9581 9.94374 51.1431 9.26093 51.2463 9.49285C51.2635 9.5315 51.3066 9.25233 51.298 9.25233C51.285 9.29097 51.2678 9.31247 51.2463 9.30817C51.2162 9.01186 51.285 8.79714 51.3624 8.64686V8.13583C51.3624 8.13583 51.341 8.11008 51.3324 8.10578C51.2463 8.04134 51.3324 7.68924 51.3324 7.61195C51.3324 7.5432 51.3453 7.48312 51.3624 7.43587V4.81637C51.298 4.79916 51.2205 4.79916 51.2334 4.9323C51.2334 4.96664 51.3668 4.9452 51.3453 5.11262C51.3453 5.10408 51.1216 5.01819 51.1259 5.02679C51.1345 4.96664 51.1431 4.9108 51.156 4.85501C51.1474 4.83781 50.8291 5.20711 50.7689 5.21141C50.8333 5.21571 51.1517 5.06113 51.2119 5.17706C51.2119 5.17706 51.199 5.34454 51.1947 5.34454C51.1431 5.35314 51.0872 5.14702 51.0183 5.34454C50.9839 5.43473 50.8119 5.72244 50.8248 5.80833C50.8162 5.76969 50.7259 6.0574 50.7215 6.0617C50.6828 6.10465 50.7732 6.27642 50.6914 6.20768C50.6656 6.18623 50.5795 6.20338 50.5581 6.20768C50.5409 6.20768 50.6871 6.4224 50.6398 6.431C50.4978 6.45674 50.472 6.56844 50.3558 6.67147C50.3473 6.68007 50.2354 6.4396 50.2354 6.56414C50.2354 6.83034 50.1537 6.55123 50.0634 6.74022C50.0806 6.7831 50.1021 6.8132 50.1236 6.83894C50.0547 6.8003 49.8483 6.86899 49.8956 6.95058C49.7837 6.76166 49.8526 7.1825 49.8526 7.1653C49.8526 7.22975 49.8698 7.44017 49.8397 7.48742C49.7666 7.62049 50.0504 7.67204 50.0547 7.62049L50.0461 7.62909Z" fill="white"/>
<path d="M51.3582 16.6986C51.3281 16.6342 51.2979 16.5698 51.2722 16.5655C51.1861 16.5526 51.1646 16.0931 51.0141 16.136C50.9839 16.1446 50.7731 15.8526 50.7645 15.7753C50.756 15.6508 50.8678 15.6379 50.8678 15.4704C50.8678 15.5306 50.8291 14.9809 50.8549 15.0067C50.7818 14.7662 50.2183 14.8822 50.0032 14.895C49.9085 14.8993 49.7278 14.8521 49.6375 14.9552C49.5515 15.0539 49.3364 15.3159 49.2288 15.3073C48.8546 15.2858 48.6653 14.7662 48.4804 15.4146C48.3771 15.7882 47.947 15.7453 47.9125 16.295C47.8953 16.5784 48.0114 16.6342 47.848 16.8875C47.7017 17.1109 47.478 17.171 47.3275 17.3685C47.078 17.6906 46.5661 18.7513 46.5274 19.2365C46.5102 19.447 46.6478 19.5844 46.6435 19.8163C46.6737 19.9365 46.6951 20.0568 46.7124 20.1813C46.6908 20.396 46.5833 20.5463 46.5618 20.7696C46.5317 21.0617 46.4714 21.6328 46.6478 21.8475C46.8156 22.0493 47.0995 22.3585 47.1942 22.6548C47.3533 23.1487 47.7921 23.5695 48.1491 23.7112C48.2954 23.7671 48.575 23.5265 48.7083 23.4707C48.9707 23.359 49.0998 23.5566 49.3364 23.3419C49.4052 23.2861 49.887 22.775 49.9171 22.8738C49.9773 23.0156 50.2397 22.818 50.2183 23.1444C50.201 23.4578 50.4075 23.2517 50.4807 23.2217C50.842 23.067 50.6226 23.883 50.6742 24.2136C50.6828 24.2738 50.5237 24.4455 50.5753 24.5915C50.6312 24.7333 50.6828 24.8836 50.7301 25.0295C50.8592 25.4203 50.9668 25.7252 50.9495 26.2835C50.9366 26.6399 51.0571 26.7 50.9151 27.0994C50.8592 27.254 50.7517 27.7693 50.7474 27.9282C50.7387 28.5251 50.9065 28.8042 50.9796 29.3367C51.0141 29.5729 51.0011 29.9508 51.0141 30.2171C51.0312 30.5606 51.1904 30.6937 51.2463 31.0072C51.2506 31.033 51.3195 31.2219 51.3625 31.3808V16.6986H51.3582Z" fill="white"/>
<path d="M47.9295 13.9932C47.9768 14.0747 48.1188 14.6115 48.1059 14.6072C48.3812 14.676 48.3726 14.5299 48.5705 14.8606C48.6135 14.9164 49.233 14.7919 49.2415 14.706C49.2501 14.6631 49.4308 14.3539 49.4566 14.3195C49.5685 14.1778 49.4308 13.9202 49.5728 13.7355C49.6545 13.6325 49.7276 13.598 49.8094 13.5036C49.947 13.3404 49.8438 13.1601 49.9298 13.014C50.0502 12.8036 50.1965 13.1815 50.3083 13.1429C50.4116 13.1085 50.4847 12.8724 50.5794 12.8422C50.7385 12.7951 50.9192 13.7312 51.0439 13.8686C51.0741 13.8987 51.2203 14.195 51.2246 14.3066C51.2246 14.3625 51.2462 14.8262 51.2418 14.8262C51.259 14.8305 51.3192 14.487 51.3063 14.4483C51.2246 14.1993 51.3192 14.2852 51.3622 14.3367V14.2422C51.3235 14.0962 51.2462 13.8643 51.2462 13.86C51.2289 13.7441 51.1945 13.7784 51.1601 13.7011C51.0955 13.5551 51.0998 13.3404 51.0439 13.1858C50.8288 12.649 51.0525 12.4815 51.1601 13.0226C51.1816 13.1214 51.2935 13.3833 51.3666 13.6023V10.0596C51.3666 10.0596 51.3236 10.0338 51.2805 10.0553C51.2547 10.0682 51.0912 10.2141 51.0655 10.1755C50.988 10.051 51.0268 9.99088 51.0009 9.90929C50.9966 9.88779 50.859 9.92643 50.8504 9.93073C50.7084 10.1025 50.7901 9.88779 50.7385 9.83624C50.6955 9.79329 50.5407 9.73751 50.545 9.51849C50.545 9.4369 50.6826 9.73321 50.6912 9.60007C50.7041 9.41539 50.6224 9.48844 50.588 9.40255C50.5493 9.28662 50.6611 9.26512 50.6826 9.23507C50.6611 9.22217 50.588 8.67679 50.6181 8.74124C50.5536 8.59951 50.4804 8.93446 50.4761 8.93876C50.4417 8.98601 50.3126 8.74124 50.3428 9.10194C50.36 9.27802 50.4331 9.61728 50.4761 9.78906C50.5493 10.0853 50.2997 9.96507 50.1922 9.94363C49.9642 9.89639 49.9986 10.3172 49.8008 10.4718C49.7233 10.5363 49.5555 10.4718 49.5814 10.708C49.6029 10.8583 49.3017 11.0086 49.2071 10.9184C49.0222 10.7295 49.091 10.8197 49.1211 11.0687C49.1512 11.3392 48.863 11.0086 48.7985 11.0301C48.2478 11.1976 49.0566 11.365 49.0738 11.6485C49.0996 11.9147 49.3104 11.8975 49.263 12.2325C49.2243 12.4988 49.3319 12.9024 49.078 12.7779C48.9447 12.7049 47.9768 12.3828 47.9209 12.6834C47.9252 12.649 48.05 13.2803 48.0371 13.2503C48.136 13.4692 47.865 13.8514 47.9381 13.9889L47.9295 13.9932Z" fill="white"/>
<path d="M29.3893 18.1458C29.2044 17.828 29.4152 18.7513 29.5055 18.5666C29.5141 18.5538 29.4022 18.1673 29.3893 18.1458C29.4539 18.2532 29.3248 18.0384 29.3893 18.1458Z" fill="white"/>
<path d="M34.4007 22.9297C34.491 23.0113 34.7922 22.8695 34.6158 22.7235C34.4824 22.6119 34.2975 22.8395 34.4007 22.9297C34.4351 22.964 34.362 22.891 34.4007 22.9297Z" fill="white"/>
<path d="M50.5365 13.8429C50.5107 13.946 50.5924 14.646 50.7042 14.3153C50.7903 14.0576 50.6139 13.5595 50.5365 13.8429C50.5494 13.7914 50.5193 13.9074 50.5365 13.8429Z" fill="white"/>
<path d="M51.1517 14.7619C51.1043 14.7791 50.8634 14.749 51.0742 14.9594C51.2247 15.1183 51.1387 15.1613 51.2119 14.7963C51.1947 14.7447 51.1774 14.7361 51.1517 14.7619C51.199 14.7447 51.1043 14.7791 51.1517 14.7619Z" fill="white"/>
</g>
<g filter="url(#filter0_d_164_1238)">
<path d="M10.0164 6.72089C4.65026 10.341 9.3214 16.3976 12.3198 18.5487C6.55586 11.9557 14.4586 9.40674 19.1891 8.97066C40.6732 6.94741 56.1458 13.4765 61.1965 16.994C45.4328 0.598501 15.7368 2.86181 10.0164 6.72089Z" fill="#020982"/>
</g>
<g filter="url(#filter1_d_164_1238)">
<path d="M54.25 29.8776C59.7971 26.419 54.3805 21.0573 51.3633 18.8702C57.1512 25.5565 49.1583 28.0913 44.3792 28.5082C22.6746 30.445 7.08283 23.7754 2 20.1985C17.8369 36.8326 48.0133 33.766 54.25 29.8776Z" fill="#020982"/>
</g>
<g style="mix-blend-mode:color-dodge">
<path d="M51.339 18.8649C53.6641 21.0669 55.0659 24.5134 51.1533 26.9209C45.1551 30.6118 19.8089 30.5321 4.04644 21.4803C3.45555 21.1468 2.93407 20.8286 2.48413 20.5328C2.99324 20.8589 3.51438 21.1747 4.04644 21.4803C10.3801 25.0544 24.6879 30.3741 44.3387 28.5234C49.404 27.9674 57.103 25.458 51.339 18.8649Z" fill="#DADEFF"/>
</g>
<g style="mix-blend-mode:color-dodge">
<path d="M12.3198 18.5486C9.9947 16.3466 8.59287 12.9002 12.5055 10.4926C18.0277 7.0947 39.966 6.98221 55.714 14.0544C58.1174 15.1015 59.9662 16.1371 61.1965 16.9939C59.4904 15.9008 57.649 14.9234 55.714 14.0544C48.251 10.803 35.4397 7.44016 19.1891 8.97057C14.4585 9.40665 6.55581 11.9556 12.3198 18.5486Z" fill="#DADEFF"/>
</g>
<defs>
<filter id="filter0_d_164_1238" x="5.56226" y="3.94604" width="57.6343" height="18.6027" filterUnits="userSpaceOnUse" color-interpolation-filters="sRGB">
<feFlood flood-opacity="0" result="BackgroundImageFix"/>
<feColorMatrix in="SourceAlpha" type="matrix" values="0 0 0 0 0 0 0 0 0 0 0 0 0 0 0 0 0 0 127 0" result="hardAlpha"/>
<feOffset dy="2"/>
<feGaussianBlur stdDeviation="1"/>
<feComposite in2="hardAlpha" operator="out"/>
<feColorMatrix type="matrix" values="0 0 0 0 0.334088 0 0 0 0 0.348431 0 0 0 0 0.350962 0 0 0 0.25 0"/>
<feBlend mode="normal" in2="BackgroundImageFix" result="effect1_dropShadow_164_1238"/>
<feBlend mode="normal" in="SourceGraphic" in2="effect1_dropShadow_164_1238" result="shape"/>
</filter>
<filter id="filter1_d_164_1238" x="0" y="18.8702" width="58.6462" height="18.0747" filterUnits="userSpaceOnUse" color-interpolation-filters="sRGB">
<feFlood flood-opacity="0" result="BackgroundImageFix"/>
<feColorMatrix in="SourceAlpha" type="matrix" values="0 0 0 0 0 0 0 0 0 0 0 0 0 0 0 0 0 0 127 0" result="hardAlpha"/>
<feOffset dy="2"/>
<feGaussianBlur stdDeviation="1"/>
<feComposite in2="hardAlpha" operator="out"/>
<feColorMatrix type="matrix" values="0 0 0 0 0.334088 0 0 0 0 0.348431 0 0 0 0 0.350962 0 0 0 0.25 0"/>
<feBlend mode="normal" in2="BackgroundImageFix" result="effect1_dropShadow_164_1238"/>
<feBlend mode="normal" in="SourceGraphic" in2="effect1_dropShadow_164_1238" result="shape"/>
</filter>
<radialGradient id="paint0_radial_164_1238" cx="0" cy="0" r="1" gradientTransform="matrix(3.37281 17.5292 -17.5739 3.37186 28.3565 21.0015)" gradientUnits="userSpaceOnUse">
<stop stop-color="#6D9BFF"/>
<stop offset="1" stop-color="#00126E"/>
</radialGradient>
</defs>
</svg>
